<?xml version="1.0" encoding="utf-8"?>
<!-- Generator: Adobe Illustrator 25.0.1, SVG Export Plug-In . SVG Version: 6.00 Build 0)  -->
<svg version="1.1" id="Layer_1" xmlns="http://www.w3.org/2000/svg" xmlns:xlink="http://www.w3.org/1999/xlink" x="0px" y="0px"
	 viewBox="0 0 139.2 138.9" style="enable-background:new 0 0 139.2 138.9;" xml:space="preserve">
<style type="text/css">
	.st0{display:none;fill:none;stroke:#D0D2D3;stroke-miterlimit:10;}
	.st1{fill:#A8BD3A;}
	.st2{fill:#003C57;}
</style>
<line class="st0" x1="30" y1="-25" x2="30" y2="225"/>
<line class="st0" x1="170" y1="-25" x2="170" y2="225"/>
<line class="st0" x1="-25" y1="30" x2="225" y2="30"/>
<line class="st0" x1="-25" y1="169.6" x2="225" y2="169.6"/>
<g>
	<g>
		<path class="st1" d="M0,84.1c2-4.3,4.3-8.5,6.7-12.7C4,64.7,1.7,57.7,0,50.5C0,62.6,0,74.6,0,84.1z M13.2,0c0,0-13,0-13,16.1
			c0,1,0,4.2,0,8.5c1.3,14.6,4.3,28.9,9.5,42c7.2-11.4,15.7-21.9,26.6-30.8C57.2,17.9,85.5,5.5,123.8,0C123.6,0,13.2,0,13.2,0z"/>
		<path class="st2" d="M138.3,8.9c-43.7,4.3-73.9,16.9-95.2,35C31.6,53.9,22.2,65.5,15,78.5c16.7,33,49,56.7,102.4,60.4h5.2
			c0,0,16.6,0.7,16.6-17.7V8.5C139,8.9,138.7,8.9,138.3,8.9z M25.6,102c-5-6-9.4-12.4-13-19.2c-4.5,8.9-8.7,18.2-12,28.4
			c0,15.6,0,27.1,0,27.1h87.6C60.7,132.1,40,119.1,25.6,102z"/>
	</g>
</g>
</svg>
