<svg id="Artwork" xmlns="http://www.w3.org/2000/svg" viewBox="0 0 649.95 56.66"><path d="M88.13,47.83c-9.56,0-13.84-7.92-13.84-17.67s4.28-17.68,13.84-17.68,13.8,8,13.8,17.68S97.7,47.83,88.13,47.83m0-32.58c-7,0-9.56,7.73-9.56,14.81s2.28,14.65,9.56,14.65S97.65,37,97.65,30.06s-2.46-14.81-9.52-14.81" transform="translate(0 0)" style="fill:#fff"/><path d="M113.83,22.88V47.19H110V22.88h-4V20.5h4V16.64c0-4.86,2.87-8.37,8.52-8.37.41,0,.91.05.91.05v2.47h-.46c-2.68,0-5.1,1.74-5.1,5.4V20.5h5.56v2.38Z" transform="translate(0 0)" style="fill:#fff"/><path d="M129.82,22.88V47.19H126V22.88h-4V20.5h4V16.64c0-4.86,2.87-8.37,8.52-8.37.41,0,.91.05.91.05v2.47h-.46c-2.68,0-5.1,1.74-5.1,5.4V20.5h5.56v2.38Z" transform="translate(0 0)" style="fill:#fff"/><path d="M141.76,15.37A2.4,2.4,0,0,1,139.3,13h0a2.46,2.46,0,1,1,4.92,0,2.39,2.39,0,0,1-2.4,2.38h0m-2,5.1h3.91V47.2H139.8Z" transform="translate(0 0)" style="fill:#fff"/><path d="M160.39,47.83c-6.33,0-11.21-5.44-11.21-14s4.88-14,11.34-14c3.23,0,5.37.89,6.51,1.83L166,24a7.93,7.93,0,0,0-4.64-1.43c-5.42,0-8.2,4.7-8.2,11,0,6.54,3.19,11.19,8.06,11.19A8.49,8.49,0,0,0,166,43.36l1,2.57c-1.14.94-3.41,1.83-6.64,1.83" transform="translate(0 0)" style="fill:#fff"/><path d="M173.37,35.45c.5,6.29,4,9.46,9.38,9.46A15.54,15.54,0,0,0,190,43.28L191.13,46a18.91,18.91,0,0,1-8.66,1.83c-7.51,0-12.84-4.45-12.84-14.06,0-9.16,4.92-13.91,11.62-13.91S192.13,24,192.13,32.93Zm7.76-13.08c-4.33,0-8,3.37-7.92,10.84l15.16-2.08c0-6.18-3-8.76-7.24-8.76" transform="translate(0 0)" style="fill:#fff"/><path d="M211,22.88V47.19h-3.9V22.88h-4V20.5h4V16.64c0-4.86,2.87-8.37,8.52-8.37.41,0,.91.05.91.05v2.47h-.43c-2.68,0-5.09,1.74-5.09,5.4V20.5h5.55v2.38Z" transform="translate(0 0)" style="fill:#fff"/><path d="M230.74,47.83c-7.87,0-11.47-6.09-11.47-14s3.6-14,11.47-14,11.44,6.14,11.44,14-3.56,14-11.44,14m0-25.35c-5.82,0-7.51,5.89-7.51,11.39S225.05,45,230.74,45s7.52-5.64,7.52-11.14-1.69-11.39-7.52-11.39" transform="translate(0 0)" style="fill:#fff"/><path d="M259,23c-2.47-.65-6.06-.55-7.75.49V47.19h-3.91V21.69c2.82-1.19,5.64-1.83,10.65-1.83h2Z" transform="translate(0 0)" style="fill:#fff"/><path d="M294.13,47.45,279,24.12a31.37,31.37,0,0,1-2-3.46h-.09s.13,2,.13,4.06V47.45h-5V13.37h5.6l14.48,21.94a29.92,29.92,0,0,1,2,3.53h0s-.18-1.94-.18-4V13.37h5V47.44Z" transform="translate(0 0)" style="fill:#fff"/><path d="M315.31,48.14c-7.83,0-11.52-3.12-11.52-8.22,0-7.17,7.51-9.11,16.43-9.9V28.48c0-3.66-2.5-4.75-6.14-4.75a18.81,18.81,0,0,0-7.24,1.54L305.52,22a25.18,25.18,0,0,1,9.61-1.94c5.91,0,10.47,2.43,10.47,9.26V46.21a24.08,24.08,0,0,1-10.29,1.93m4.91-15.45c-6.6.7-11,1.93-11,7.09,0,3.6,2.56,5.14,6.57,5.14a10.48,10.48,0,0,0,4.45-.89Z" transform="translate(0 0)" style="fill:#fff"/><path d="M341.13,48c-5.6,0-7.74-3.62-7.74-7.23V24.22h-3.73V20.76h3.73v-6l5.69-1.58v7.57h5.19v3.46H339v16.3a3.45,3.45,0,0,0,3.15,3.71h.5a5.39,5.39,0,0,0,1.54-.25v3.52a8.41,8.41,0,0,1-3.14.54" transform="translate(0 0)" style="fill:#fff"/><path d="M351.56,16.15a3,3,0,1,1,3.32-3,3.18,3.18,0,0,1-3.32,3m-2.87,4.61h5.74V47.45h-5.74Z" transform="translate(0 0)" style="fill:#fff"/><path d="M371.55,48.14c-8.15,0-12.2-6-12.2-14s4-14.07,12.2-14.07,12.16,6.1,12.16,14.07-4,14-12.16,14m0-24.41c-4.91,0-6.37,5.15-6.37,10.35s1.55,10.15,6.37,10.15,6.38-5,6.38-10.15-1.46-10.35-6.38-10.35" transform="translate(0 0)" style="fill:#fff"/><path d="M404.9,47.45V28.37c0-3.42-2.92-4.7-6.2-4.7a12.87,12.87,0,0,0-4.6.79v23h-5.69V22A28.1,28.1,0,0,1,399,20.07c7,0,11.61,2.37,11.61,8.21V47.45Z" transform="translate(0 0)" style="fill:#fff"/><path d="M426.67,48.14c-7.83,0-11.53-3.12-11.53-8.22,0-7.17,7.52-9.11,16.44-9.9V28.48c0-3.66-2.5-4.75-6.14-4.75a18.81,18.81,0,0,0-7.24,1.54L416.88,22a25.18,25.18,0,0,1,9.61-1.94c5.91,0,10.47,2.43,10.47,9.26V46.21a24.08,24.08,0,0,1-10.29,1.93m4.91-15.45c-6.6.7-11,1.93-11,7.09,0,3.6,2.56,5.14,6.56,5.14A10.38,10.38,0,0,0,431.6,44Z" transform="translate(0 0)" style="fill:#fff"/><polygon points="442.84 47.45 442.84 34.57 442.84 8.58 448.53 8.58 448.53 21.76 448.53 47.45 442.84 47.45" style="fill:#fff"/><path d="M471.13,48.14a20.26,20.26,0,0,1-9.29-1.93l1.59-4.16A14.25,14.25,0,0,0,470,43.68c4,0,6.79-2.32,6.79-5.69,0-7.48-14.17-4.6-14.17-15.2,0-5.4,4.38-10.11,11.3-10.11a16.8,16.8,0,0,1,8.19,1.94l-1.42,3.75a12.62,12.62,0,0,0-6-1.59c-3.69,0-6.1,2.23-6.1,5.4,0,7.33,14.48,4.16,14.48,15.45,0,6-5,10.55-11.93,10.55" transform="translate(0 0)" style="fill:#fff"/><path d="M497.53,48c-5.6,0-7.74-3.62-7.74-7.23V24.22h-3.73V20.76h3.73v-6l5.7-1.58v7.57h5.18v3.46h-5.18v16.3a3.43,3.43,0,0,0,3.13,3.71h.51a5.39,5.39,0,0,0,1.54-.25v3.52a8.41,8.41,0,0,1-3.14.54" transform="translate(0 0)" style="fill:#fff"/><path d="M515.3,48.14c-7.84,0-11.53-3.12-11.53-8.22,0-7.17,7.52-9.11,16.45-9.9V28.48c0-3.66-2.51-4.75-6.15-4.75a18.81,18.81,0,0,0-7.24,1.54L505.51,22a25.09,25.09,0,0,1,9.6-1.94c5.93,0,10.48,2.43,10.48,9.26V46.21a24.08,24.08,0,0,1-10.29,1.93m4.92-15.45c-6.61.7-11,1.93-11,7.09,0,3.6,2.55,5.14,6.55,5.14a10.42,10.42,0,0,0,4.47-.89Z" transform="translate(0 0)" style="fill:#fff"/><path d="M541.13,48c-5.61,0-7.75-3.62-7.75-7.23V24.22h-3.73V20.76h3.73v-6l5.69-1.58v7.57h5.19v3.46h-5.19v16.3a3.45,3.45,0,0,0,3.15,3.71h.5a5.39,5.39,0,0,0,1.54-.25v3.52a8.36,8.36,0,0,1-3.13.54" transform="translate(0 0)" style="fill:#fff"/><path d="M551.55,16.15a3,3,0,1,1,3.33-3,3.17,3.17,0,0,1-3.33,3m-2.87,4.61h5.74V47.45h-5.74Z" transform="translate(0 0)" style="fill:#fff"/><path d="M566.86,48.14a16.8,16.8,0,0,1-8.07-1.93l1.51-3.66a11.09,11.09,0,0,0,5.83,1.58c2.91,0,5.23-1.88,5.23-4.16,0-6.34-11.7-3.37-11.7-12.08,0-4,3.55-7.83,9.33-7.83A14.27,14.27,0,0,1,576.51,22L575,25.31a8.86,8.86,0,0,0-4.88-1.53c-3,0-4.78,1.78-4.78,3.81,0,5.95,11.93,3.32,11.93,12.23,0,4.26-4,8.32-10.42,8.32" transform="translate(0 0)" style="fill:#fff"/><path d="M591.77,48c-5.6,0-7.74-3.62-7.74-7.23V24.22H580.3V20.76H584v-6l5.69-1.58v7.57h5.19v3.46h-5.19v16.3a3.45,3.45,0,0,0,3.15,3.71h.5a5.39,5.39,0,0,0,1.54-.25v3.52a8.41,8.41,0,0,1-3.14.54" transform="translate(0 0)" style="fill:#fff"/><path d="M602.25,16.15a3,3,0,1,1,3.33-3,3.17,3.17,0,0,1-3.33,3m-2.87,4.61h5.75V47.45h-5.74Z" transform="translate(0 0)" style="fill:#fff"/><path d="M621.61,48.14c-6.56,0-11.57-5.35-11.57-14.06s5.15-14,11.61-14A11.06,11.06,0,0,1,628.48,22l-1.28,3.21A7.19,7.19,0,0,0,623,24c-4.65,0-7.06,4-7.06,10s2.78,10.1,7,10.1a7.23,7.23,0,0,0,4.19-1.34l1.41,3.52c-1.19,1-3.51,1.93-6.92,1.93" transform="translate(0 0)" style="fill:#fff"/><path d="M639.53,48.14a16.74,16.74,0,0,1-8.06-1.93l1.5-3.66a11.18,11.18,0,0,0,5.83,1.58c2.91,0,5.23-1.88,5.23-4.16,0-6.34-11.7-3.37-11.7-12.08,0-4,3.56-7.83,9.34-7.83A14.26,14.26,0,0,1,649.18,22l-1.5,3.31a8.91,8.91,0,0,0-4.87-1.53c-3,0-4.79,1.78-4.79,3.81C638,33.54,650,30.91,650,39.82c0,4.26-4.05,8.32-10.42,8.32" transform="translate(0 0)" style="fill:#fff"/><path d="M0,33.18C.87,31.41,1.5,30,2.48,28.35A39.74,39.74,0,0,1,0,21.42V33.18M5.29,0S0,0,0,6.56V7.61A65.25,65.25,0,0,0,4.46,25.2a46,46,0,0,1,10-11.33C23,6.52,33.1,2.24,48.77,0Z" transform="translate(0 0)" style="fill:#fff"/><path d="M56.42,3.59C38.49,5.3,26.25,10.42,17.47,17.92A44,44,0,0,0,6.81,30.65c6.87,13.37,20.86,24.6,42.74,26H50s6.73.23,6.73-7.25V3.53a1.27,1.27,0,0,1-.28.06M10.33,41.65A46.47,46.47,0,0,1,5,33.86,84.09,84.09,0,0,0,0,45.54V56.6l33,.06c-10.45-3.18-16.74-8-22.7-15" transform="translate(0 0)" style="fill:#fff"/></svg>